<svg id="Layer_1" data-name="Layer 1" xmlns="http://www.w3.org/2000/svg" viewBox="0 0 19.3 40.6">
    <defs>
        <style>
            .cls-1 {
                fill: #eaeaea;
            }

            .cls-2 {
                fill: #cecece;
            }

            .cls-3 {
                fill: #e53a50;
            }

            .cls-4 {
                fill: #eb5569;
            }

            .cls-5 {
                fill: #dce4e9;
            }

            #heart {
                transform: translateY(20px) rotateY(180deg);
                transform-origin: 50% 50%;
                animation: rotate .5s ease-out infinite alternate;
            }

            @keyframes rotate {
                100% {
                    transform: translateY(0px);
                    transform-origin: 50% 50%;
                }
            }

        </style>
    </defs>
    <title>loading</title>
    <g id="heart">
        <g>
            <path class="cls-1" d="M7.4,25.7c-.3.3-.5.7-.9.9H6.2c-.3-.1-.3-.4-.3-.7V22.3c0-.2,0-.2-.3-.2h-2A3.5,3.5,0,0,1,.5,19.4a3.8,3.8,0,0,1-.1-1V10.6A3.4,3.4,0,0,1,2.1,7.5h0c.1,0,.1.1.1.2a.6.6,0,0,0-.1.4V17a.9.9,0,0,0,.1.5,3.2,3.2,0,0,0,1.2,2.2,3.2,3.2,0,0,0,2.1.8H7.1c.3,0,.3.1.3.3v4.9Z" transform="translate(-0.4 -6.9)" />
            <path class="cls-1" d="M7.4,25.7V20.8c0-.2,0-.3-.3-.3H5.5a3.2,3.2,0,0,1-2.1-.8,3.2,3.2,0,0,1-1.2-2.2.9.9,0,0,1-.1-.5V8.1a.6.6,0,0,1,.1-.4c0-.1,0-.2-.1-.2A3.4,3.4,0,0,1,3.8,7H15.9a3.5,3.5,0,0,1,3.4,2.1,4,4,0,0,1,.3,1.5v7.8A3.7,3.7,0,0,1,16.8,22H10.7L7.6,25.6ZM8.1,11H7.4a2.4,2.4,0,0,0-2.2,2.2A2.5,2.5,0,0,0,6,15l3.3,3.3.4.5h.6l.3-.4h.2L14,15a2,2,0,0,0,.7-1.6,2.1,2.1,0,0,0-1.1-2.1,2.1,2.1,0,0,0-2.4,0,3.4,3.4,0,0,0-.9.8.4.4,0,0,1-.6,0l-.4-.4A2.4,2.4,0,0,0,8.1,11Z" transform="translate(-0.4 -6.9)" />
            <path class="cls-1" d="M8.1,11l-.2.2A2.1,2.1,0,0,0,6.5,13a2.3,2.3,0,0,0,.6,1.9,6,6,0,0,0,.8.8l2.5,2.6h.2l-.3.4H9.7l-.4-.5L6,15a2.5,2.5,0,0,1-.8-1.8A2.4,2.4,0,0,1,7.4,11Z" transform="translate(-0.4 -6.9)" />
        </g>
        <g>
            <path class="cls-3" d="M7.4,25.7c-.3.3-.5.7-.9.9H6.2c-.3-.1-.3-.4-.3-.7V22.3c0-.2,0-.2-.3-.2h-2A3.5,3.5,0,0,1,.5,19.4a3.8,3.8,0,0,1-.1-1V10.6A3.4,3.4,0,0,1,2.1,7.5h0c.1,0,.1.1.1.2a.6.6,0,0,0-.1.4V17a.9.9,0,0,0,.1.5,3.2,3.2,0,0,0,1.2,2.2,3.2,3.2,0,0,0,2.1.8H7.1c.3,0,.3.1.3.3v4.9Z" transform="translate(-0.4 -6.9)" />
            <path class="cls-4" d="M7.4,25.7V20.8c0-.2,0-.3-.3-.3H5.5a3.2,3.2,0,0,1-2.1-.8,3.2,3.2,0,0,1-1.2-2.2.9.9,0,0,1-.1-.5V8.1a.6.6,0,0,1,.1-.4c0-.1,0-.2-.1-.2A3.4,3.4,0,0,1,3.8,7H15.9a3.5,3.5,0,0,1,3.4,2.1,4,4,0,0,1,.3,1.5v7.8A3.7,3.7,0,0,1,16.8,22H10.7L7.6,25.6ZM8.1,11H7.4a2.4,2.4,0,0,0-2.2,2.2A2.5,2.5,0,0,0,6,15l3.3,3.3.4.5h.6l.3-.4h.2L14,15a2,2,0,0,0,.7-1.6,2.1,2.1,0,0,0-1.1-2.1,2.1,2.1,0,0,0-2.4,0,3.4,3.4,0,0,0-.9.8.4.4,0,0,1-.6,0l-.4-.4A2.4,2.4,0,0,0,8.1,11Z" transform="translate(-0.4 -6.9)" />
            <path class="cls-5" d="M8.1,11l-.2.2A2.1,2.1,0,0,0,6.5,13a2.3,2.3,0,0,0,.6,1.9,6,6,0,0,0,.8.8l2.5,2.6h.2l-.3.4H9.7l-.4-.5L6,15a2.5,2.5,0,0,1-.8-1.8A2.4,2.4,0,0,1,7.4,11Z" transform="translate(-0.4 -6.9)" />
        </g>
    </g>
</svg>
